HIERARCHY
ROOT Hips
{
	OFFSET -0.001795 -0.223333 0.028219
	CHANNELS 6 Xposition Yposition Zposition Zrotation Yrotation Xrotation 
	JOINT LeftUpLeg
	{
		OFFSET 0.069520 -0.091406 -0.006815
		CHANNELS 3 Zrotation Yrotation Xrotation
		JOINT LeftLeg
		{
			OFFSET 0.034277 -0.375199 -0.004496
			CHANNELS 3 Zrotation Yrotation Xrotation
			JOINT LeftFoot
			{
				OFFSET -0.013596 -0.397961 -0.043693
				CHANNELS 3 Zrotation Yrotation Xrotation
				JOINT LeftToe
				{
					OFFSET 0.026358 -0.055791 0.119288
					CHANNELS 3 Zrotation Yrotation Xrotation
					End Site
					{
						OFFSET 0.000000 0.000000 0.000000
					}
				}
			}
		}
	}
	JOINT RightUpLeg
	{
		OFFSET -0.067670 -0.090522 -0.004320
		CHANNELS 3 Zrotation Yrotation Xrotation
		JOINT RightLeg
		{
			OFFSET -0.038290 -0.382569 -0.008850
			CHANNELS 3 Zrotation Yrotation Xrotation
			JOINT RightFoot
			{
				OFFSET 0.015774 -0.398415 -0.042312
				CHANNELS 3 Zrotation Yrotation Xrotation
				JOINT RightToe
				{
					OFFSET -0.025372 -0.048144 0.123348
					CHANNELS 3 Zrotation Yrotation Xrotation
					End Site
					{
						OFFSET 0.000000 0.000000 0.000000
					}
				}
			}
		}
	}
	JOINT Spine
	{
		OFFSET -0.002533 0.108963 -0.026696
		CHANNELS 3 Zrotation Yrotation Xrotation
		JOINT Spine1
		{
			OFFSET 0.005487 0.135180 0.001092
			CHANNELS 3 Zrotation Yrotation Xrotation
			JOINT Spine2
			{
				OFFSET 0.001457 0.052922 0.025425
				CHANNELS 3 Zrotation Yrotation Xrotation
				JOINT Neck
				{
					OFFSET -0.002778 0.213870 -0.042857
					CHANNELS 3 Zrotation Yrotation Xrotation
					JOINT Head
					{
						OFFSET 0.005152 0.064970 0.051349
						CHANNELS 3 Zrotation Yrotation Xrotation
						End Site
						{
							OFFSET 0.000000 0.000000 0.000000
						}
					}
				}
				JOINT LeftShoulder
				{
					OFFSET 0.078845 0.121749 -0.034090
					CHANNELS 3 Zrotation Yrotation Xrotation
					JOINT LeftArm
					{
						OFFSET 0.090977 0.030469 -0.008868
						CHANNELS 3 Zrotation Yrotation Xrotation
						JOINT LeftForeArm
						{
							OFFSET 0.259612 -0.012772 -0.027456
							CHANNELS 3 Zrotation Yrotation Xrotation
							JOINT LeftHand
							{
								OFFSET 0.249234 0.008986 -0.001171
								CHANNELS 3 Zrotation Yrotation Xrotation
								End Site
								{
									OFFSET 0.000000 0.000000 0.000000
								}
							}
						}
					}
				}
				JOINT RightShoulder
				{
					OFFSET -0.081759 0.118833 -0.038615
					CHANNELS 3 Zrotation Yrotation Xrotation
					JOINT RightArm
					{
						OFFSET -0.096012 0.032551 -0.009143
						CHANNELS 3 Zrotation Yrotation Xrotation
						JOINT RightForeArm
						{
							OFFSET -0.253742 -0.013329 -0.021401
							CHANNELS 3 Zrotation Yrotation Xrotation
							JOINT RightHand
							{
								OFFSET -0.255298 0.007772 -0.005559
								CHANNELS 3 Zrotation Yrotation Xrotation
								End Site
								{
									OFFSET 0.000000 0.000000 0.000000
								}
							}
						}
					}
				}
			}
		}
	}
}
MOTION
Frames: 13
Frame Time: 0.050000
-0.060082 0.968928 -0.051503 5.981169 -8.772611 19.245163 -2.102814 -2.101458 -23.552400 2.895534 -0.173553 -2.625010 -0.939412 3.877762 18.875694 0.000000 0.000000 0.000000 -6.609252 2.024895 -25.654160 -8.527438 0.229948 -4.632079 4.913314 -1.334365 21.509135 0.000000 0.000000 0.000000 3.432134 -1.243936 16.910438 5.840212 -2.525086 0.295416 -13.377083 12.549818 2.819392 29.781140 -11.960872 -26.428666 0.000000 0.000000 0.000000 25.986428 -42.928210 8.236654 19.610757 -64.747079 -19.157081 24.520195 -8.321485 -1.350738 0.000000 0.000000 0.000000 -19.461559 32.296595 7.339090 7.384130 34.257343 0.568431 -11.076103 -4.362320 0.659730 0.000000 0.000000 0.000000 
-0.061545 0.969049 -0.054970 6.407263 -7.706171 19.396614 -2.220240 -2.152259 -23.399693 3.059783 -0.117124 -3.663553 -1.424389 3.561362 19.638632 0.000000 0.000000 0.000000 -6.681460 1.943835 -25.554558 -9.144333 0.217257 -5.095459 5.074983 -0.993487 21.890837 0.000000 0.000000 0.000000 3.521598 -1.331665 17.566159 6.763999 -3.052061 1.822127 -13.979878 12.130184 1.658383 30.341253 -12.456994 -25.651465 0.000000 0.000000 0.000000 30.028218 -45.223628 7.384290 31.863215 -62.340757 -25.555720 20.042646 -0.085569 0.152820 0.000000 0.000000 0.000000 -22.355160 34.305337 7.051723 0.709556 32.335048 -0.839405 -6.642751 -8.175526 0.505071 0.000000 0.000000 0.000000 
-0.062873 0.969060 -0.056789 6.504872 -7.249088 19.383031 -1.962942 -2.150659 -23.616323 2.767202 -0.113919 -3.307028 -2.022089 2.703812 19.419832 0.000000 0.000000 0.000000 -6.460920 1.939383 -25.493382 -8.961099 0.288784 -4.425143 4.470024 -1.541790 21.056035 0.000000 0.000000 0.000000 3.934688 -1.514246 18.871965 6.494512 -2.906024 1.439316 -13.248976 11.946135 1.787860 30.207042 -12.688252 -24.907439 0.000000 0.000000 0.000000 31.135610 -46.088056 7.095568 36.852789 -61.523983 -28.022961 19.411051 1.572906 0.387122 0.000000 0.000000 0.000000 -23.156526 34.306342 6.838307 -2.220685 31.662934 -1.418947 -6.144989 -8.919622 0.480040 0.000000 0.000000 0.000000 
-0.064258 0.969069 -0.057675 6.913120 -6.674105 19.915243 -1.974595 -2.224316 -24.198463 2.250580 -0.044294 -3.756368 -2.666592 1.965625 19.739811 0.000000 0.000000 0.000000 -6.618702 1.913591 -25.921954 -8.837050 0.292074 -4.346293 4.266784 -1.542274 20.590022 0.000000 0.000000 0.000000 3.803404 -1.499846 18.687258 6.516927 -2.946806 1.792619 -12.463186 11.199367 2.179917 28.196184 -11.807685 -24.271329 0.000000 0.000000 0.000000 31.743944 -46.300494 6.870870 38.105702 -60.406198 -27.825132 21.022215 0.640493 0.274662 0.000000 0.000000 0.000000 -23.909453 34.215075 6.611844 -2.278189 31.058235 -1.452440 -9.718353 -7.497363 0.765408 0.000000 0.000000 0.000000 
-0.065645 0.969698 -0.057267 6.887144 -6.190979 19.814291 -1.645676 -2.148553 -23.642097 2.178730 -0.027709 -3.932151 -3.298117 1.108716 19.733698 0.000000 0.000000 0.000000 -6.267577 1.953624 -26.258369 -9.027638 0.449605 -3.147311 3.978685 -1.701977 19.999243 0.000000 0.000000 0.000000 3.942566 -1.552194 18.736697 6.974485 -3.141376 1.488786 -12.472595 10.601583 2.025592 26.648319 -11.469459 -22.863111 0.000000 0.000000 0.000000 28.687192 -45.641396 7.762925 34.895284 -61.992562 -26.627809 24.306699 -4.447584 -0.584720 0.000000 0.000000 0.000000 -21.686769 33.176112 7.051802 0.308584 31.426791 -1.044976 -18.108042 -3.208909 1.056289 0.000000 0.000000 0.000000 
-0.067166 0.969872 -0.055612 7.142648 -5.592979 19.760114 -1.496751 -2.152563 -23.636998 1.774344 -0.009720 -3.669445 -3.360208 1.148692 19.819807 0.000000 0.000000 0.000000 -6.441465 1.888952 -26.271760 -8.907707 0.536373 -2.382426 3.761417 -1.575874 19.113956 0.000000 0.000000 0.000000 3.712739 -1.470732 17.976995 7.084438 -3.182625 1.201267 -11.802629 10.365374 2.744254 25.126722 -11.017423 -21.867619 0.000000 0.000000 0.000000 26.222418 -43.707187 8.289225 31.371830 -64.865632 -26.102778 28.247197 -9.978266 -1.905276 0.000000 0.000000 0.000000 -18.868915 30.900407 7.235720 4.905854 32.939701 -0.170884 -29.296284 2.188646 0.752907 0.000000 0.000000 0.000000 
-0.068772 0.969992 -0.052700 6.965947 -4.909229 19.079627 -1.030659 -2.032869 -22.677025 1.807718 -0.001098 -3.860905 -4.358681 -0.344379 19.476832 0.000000 0.000000 0.000000 -5.816315 1.864686 -25.215465 -9.431807 0.579820 -2.419771 3.886586 -0.976548 18.443200 0.000000 0.000000 0.000000 3.987078 -1.493988 17.135111 7.180852 -3.282653 1.620289 -12.054022 9.508097 2.208689 24.004544 -11.278717 -19.417389 0.000000 0.000000 0.000000 20.978775 -43.246179 9.626174 20.625905 -66.036449 -19.557944 31.439099 -17.806971 -4.131668 0.000000 0.000000 0.000000 -14.338759 29.548127 8.101088 10.875068 32.637160 0.955109 -40.973450 10.853697 -1.587907 0.000000 0.000000 0.000000 
-0.070409 0.969553 -0.049830 7.208390 -4.316162 18.847001 -1.226874 -2.021209 -21.937913 2.043786 -0.014996 -3.896351 -4.578614 -0.538773 19.542420 0.000000 0.000000 0.000000 -5.984197 1.799636 -25.173399 -9.205217 0.688521 -1.442000 3.494540 -1.110010 17.407631 0.000000 0.000000 0.000000 3.766709 -1.390895 16.139431 7.453008 -3.364802 0.874199 -11.797171 9.065318 3.614879 22.967001 -10.452680 -20.286563 0.000000 0.000000 0.000000 18.603889 -41.641800 9.900928 13.429099 -67.891504 -15.672863 32.781636 -23.092594 -5.765899 0.000000 0.000000 0.000000 -12.245894 27.350566 7.904828 16.186594 32.056364 1.930574 -50.431775 19.510872 -5.534830 0.000000 0.000000 0.000000 
-0.072226 0.969101 -0.048359 7.212497 -3.718362 18.648652 -1.226953 -2.024274 -21.737882 1.886590 0.007524 -4.082500 -4.168065 0.059523 19.235613 0.000000 0.000000 0.000000 -6.037651 1.742552 -24.973249 -9.208213 0.735382 -1.115705 3.278258 -1.189914 16.945810 0.000000 0.000000 0.000000 3.799820 -1.335698 15.009839 7.437862 -3.347969 0.632198 -11.796139 8.442387 3.613092 23.123625 -10.697548 -19.946905 0.000000 0.000000 0.000000 15.442925 -41.630177 10.668097 5.249618 -67.952806 -10.277759 33.209522 -26.738043 -6.863125 0.000000 0.000000 0.000000 -9.562336 27.246136 8.544017 17.838613 31.788390 2.144269 -52.636432 23.189264 -7.563360 0.000000 0.000000 0.000000 
-0.074358 0.968856 -0.048724 7.130756 -3.347271 18.168569 -1.030081 -1.987984 -21.477706 1.996052 -0.028874 -3.530771 -4.124033 0.063569 18.913264 0.000000 0.000000 0.000000 -5.593093 1.759577 -24.621471 -9.317989 0.819107 -0.556957 3.032414 -1.365231 16.416635 0.000000 0.000000 0.000000 4.076980 -1.418405 15.357476 6.862171 -2.992338 -0.569645 -11.423418 8.140063 4.276993 23.282954 -10.671025 -20.473424 0.000000 0.000000 0.000000 13.695579 -41.043890 10.945182 1.388583 -68.567724 -7.843494 33.037902 -27.929252 -7.136215 0.000000 0.000000 0.000000 -9.151122 27.919456 8.839225 17.228572 33.135917 2.150413 -48.790585 19.516851 -5.509448 0.000000 0.000000 0.000000 
-0.076875 0.968452 -0.050384 7.348787 -2.649784 18.283246 -1.111153 -2.064199 -21.925727 1.804717 -0.052128 -2.747242 -3.723286 0.718531 18.713908 0.000000 0.000000 0.000000 -5.932939 1.685920 -24.895259 -8.718601 0.816075 -0.159774 2.346423 -2.273248 15.914323 0.000000 0.000000 0.000000 3.948728 -1.370208 14.814224 6.925817 -3.049973 -0.332035 -11.980712 8.579156 4.171475 24.357175 -10.788950 -21.738061 0.000000 0.000000 0.000000 13.114827 -41.765852 11.248417 2.414098 -68.988148 -8.800517 32.417573 -26.374257 -6.562689 0.000000 0.000000 0.000000 -9.525247 28.604909 8.995557 14.622448 34.904305 1.843850 -41.893654 12.088740 -2.087719 0.000000 0.000000 0.000000 
-0.079637 0.968254 -0.052347 6.949576 -1.700433 17.856742 -0.455507 -2.002137 -21.894048 1.706216 -0.088553 -1.804815 -3.539586 0.730951 17.608916 0.000000 0.000000 0.000000 -5.761056 1.634427 -24.463931 -8.306352 0.800979 -0.024487 2.147259 -2.542092 16.089264 0.000000 0.000000 0.000000 4.765054 -1.613646 15.538373 6.403738 -2.775344 -0.917677 -12.265344 9.163517 3.974927 26.081070 -11.882113 -21.432218 0.000000 0.000000 0.000000 11.481068 -42.096208 11.714361 2.778385 -69.471528 -9.325027 31.717051 -26.710182 -6.487976 0.000000 0.000000 0.000000 -9.548801 29.660515 9.382329 11.290009 36.077399 1.232122 -32.823943 5.249940 0.081263 0.000000 0.000000 0.000000 
-0.082437 0.967430 -0.053754 6.941210 -1.368537 17.887689 -0.228338 -2.015778 -22.272773 1.880618 -0.137959 -1.116006 -3.922839 0.225881 17.688757 0.000000 0.000000 0.000000 -5.720817 1.616912 -24.359431 -7.956427 0.721539 -0.461949 2.414590 -2.287591 16.873846 0.000000 0.000000 0.000000 4.754131 -1.617076 15.489310 6.270966 -2.760188 -0.460741 -12.690803 10.138966 3.786118 26.962037 -11.870673 -22.615718 0.000000 0.000000 0.000000 10.944747 -42.237202 11.850940 2.320504 -69.462834 -9.385986 33.076232 -27.318118 -7.041569 0.000000 0.000000 0.000000 -11.309552 30.453925 9.157048 8.994164 37.194230 0.917852 -24.705639 0.307521 0.914180 0.000000 0.000000 0.000000 
